<svg width="16" height="16" viewBox="0 0 16 16" version="1.1" xmlns="http://www.w3.org/2000/svg" xmlns:xlink="http://www.w3.org/1999/xlink" xmlns:figma="http://www.figma.com/figma/ns">
<title>Folder_new</title>
<desc>Created using Figma</desc>
<g id="Canvas" transform="translate(-31 203)" figma:type="canvas">
<mask id="mask0_alpha" mask-type="alpha">
<path d="M 31 -203L 47 -203L 47 -187L 31 -187L 31 -203Z" fill="#FFFFFF"/>
</mask>
<g id="Folder_new" mask="url(#mask0_alpha)" figma:type="frame">
<g id="Folder" figma:type="vector">
<use xlink:href="#path0_fill" transform="translate(31 -202)" fill="url(#paint0_linear)"/>
<mask id="mask1_outline_ins">
<use xlink:href="#path0_fill" fill="white" transform="translate(31 -202)"/>
</mask>
<g mask="url(#mask1_outline_ins)">
<use xlink:href="#path1_stroke_2x" transform="translate(31 -202)" fill="url(#paint1_linear)"/>
</g>
</g>
<g id="Shine" figma:type="vector">
<mask id="mask2_outline_ins">
<use xlink:href="#path2_fill" fill="white" transform="translate(31.4852 -201.514)"/>
</mask>
<g mask="url(#mask2_outline_ins)">
<use xlink:href="#path3_stroke_2x" transform="translate(31.4852 -201.514)" fill="url(#paint2_linear)" fill-opacity="0.6"/>
</g>
</g>
<g id="Union" figma:type="vector-operation">
<use xlink:href="#path4_fill" transform="translate(36 -197)" fill="#82B6CD"/>
</g>
</g>
</g>
<defs>
<linearGradient id="paint0_linear" x1="0" y1="0" x2="1" y2="0" gradientUnits="userSpaceOnUse" gradientTransform="matrix(9.79717e-16 13.8667 -16 8.49088e-16 16 0)">
<stop offset="0" stop-color="#C3E3F1"/>
<stop offset="0.111111" stop-color="#BFE1F0"/>
<stop offset="1" stop-color="#9DD2EA"/>
</linearGradient>
<linearGradient id="paint1_linear" x1="0" y1="0" x2="1" y2="0" gradientUnits="userSpaceOnUse" gradientTransform="matrix(-8.24367e-15 13.8582 -18.8 2.75001e-14 17.4 1.0423e-21)">
<stop offset="0" stop-color="#6EBEE1"/>
<stop offset="1" stop-color="#6498AE"/>
</linearGradient>
<linearGradient id="paint2_linear" x1="0" y1="0" x2="1" y2="0" gradientUnits="userSpaceOnUse" gradientTransform="matrix(-7.72845e-15 12.992 -17.625 2.57813e-14 15.8274 0.50618)">
<stop offset="0.18663" stop-color="#FFFFFF" stop-opacity="0.6"/>
<stop offset="0.279416" stop-color="#FFFFFF" stop-opacity="0"/>
</linearGradient>
<path id="path0_fill" d="M 2.13965 0L 5.32702 0C 6.28528 0 7.09641 0.437829 7.36889 1.30202C 7.58561 1.80925 8 1.9835 8.53333 1.99202L 13.8753 1.99202C 15.0487 1.99202 16 3.09352 16 4.25815L 16 11.7418C 16 12.9154 15.047 13.992 13.8753 13.992L 2.12468 13.992C 0.95125 13.992 0 12.9065 0 11.7418L 0 5.8638L 0 2.13055C 0 0.95388 0.945658 0 2.13965 0Z"/>
<path id="path1_stroke_2x" d="M 8.53333 1.99202L 8.52535 2.49202L 8.53333 2.49202L 8.53333 1.99202ZM 7.36889 1.30202L 6.89203 1.45237L 6.89943 1.47584L 6.9091 1.49847L 7.36889 1.30202ZM 5.32702 -0.5L 2.13965 -0.5L 2.13965 0.5L 5.32702 0.5L 5.32702 -0.5ZM 2.13965 -0.5C 0.66965 -0.5 -0.5 0.677604 -0.5 2.13055L 0.5 2.13055C 0.5 1.23016 1.22167 0.5 2.13965 0.5L 2.13965 -0.5ZM -0.5 2.13055L -0.5 5.8638L 0.5 5.8638L 0.5 2.13055L -0.5 2.13055ZM -0.5 5.8638L -0.5 11.7418L 0.5 11.7418L 0.5 5.8638L -0.5 5.8638ZM -0.5 11.7418C -0.5 13.1437 0.637712 14.492 2.12468 14.492L 2.12468 13.492C 1.26479 13.492 0.5 12.6693 0.5 11.7418L -0.5 11.7418ZM 2.12468 14.492L 13.8753 14.492L 13.8753 13.492L 2.12468 13.492L 2.12468 14.492ZM 13.8753 14.492C 15.3591 14.492 16.5 13.1541 16.5 11.7418L 15.5 11.7418C 15.5 12.6766 14.735 13.492 13.8753 13.492L 13.8753 14.492ZM 16.5 11.7418L 16.5 4.25815L 15.5 4.25815L 15.5 11.7418L 16.5 11.7418ZM 16.5 4.25815C 16.5 2.86098 15.3666 1.49202 13.8753 1.49202L 13.8753 2.49202C 14.7309 2.49202 15.5 3.32606 15.5 4.25815L 16.5 4.25815ZM 13.8753 1.49202L 8.53333 1.49202L 8.53333 2.49202L 13.8753 2.49202L 13.8753 1.49202ZM 7.84575 1.15167C 7.48776 0.0162558 6.42919 -0.5 5.32702 -0.5L 5.32702 0.5C 6.14137 0.5 6.70507 0.859402 6.89203 1.45237L 7.84575 1.15167ZM 6.9091 1.49847C 7.05777 1.82773 7.32756 2.1203 7.5923 2.27263C 7.86032 2.41249 8.21514 2.4851 8.52535 2.49196L 8.54132 1.49208C 8.31819 1.49042 8.19915 1.47165 8.07247 1.39545C 7.9425 1.33172 7.89673 1.28354 7.82868 1.10557L 6.9091 1.49847Z"/>
<path id="path2_fill" d="M 2.01485 0.00617363L 4.49489 0.00617363C 5.379 -0.00288094 6.15772 0.292883 6.3768 0.939073C 6.59587 1.58526 7.34925 2.07667 8.01485 2.00616L 13.0008 2.00357C 14.1963 1.88504 15.0874 2.78606 14.9927 3.99558L 15.0067 11.5115C 15.0067 12.6117 14.1133 13.5036 13.0149 13.5036L 2.01485 13.5062C 0.914762 13.5062 0.0229648 12.606 0.0229648 11.5142L 0.0229648 6.00349L 0.00892955 2.00357C -0.0994248 0.808175 0.790525 -0.0831978 2.01485 0.00617363Z"/>
<path id="path3_stroke_2x" d="M 4.49489 0.00617363L 4.49489 0.5062L 4.50002 0.506147L 4.49489 0.00617363ZM 2.01485 0.00617363L 1.97845 0.504847L 1.99662 0.506174L 2.01485 0.506174L 2.01485 0.00617363ZM 0.00892955 2.00357L 0.508926 2.00181L 0.50885 1.98008L 0.506888 1.95843L 0.00892955 2.00357ZM 0.0229648 6.00349L 0.522968 6.00349L 0.522962 6.00173L 0.0229648 6.00349ZM 2.01485 13.5062L 2.01485 14.0062L 2.01497 14.0062L 2.01485 13.5062ZM 13.0149 13.5036L 13.0149 13.0036L 13.0147 13.0036L 13.0149 13.5036ZM 15.0067 11.5115L 15.5067 11.5115L 15.5067 11.5106L 15.0067 11.5115ZM 14.9927 3.99558L 14.4942 3.95653L 14.4927 3.97649L 14.4927 3.99652L 14.9927 3.99558ZM 13.0008 2.00357L 13.0011 2.50357L 13.0257 2.50355L 13.0501 2.50113L 13.0008 2.00357ZM 8.01485 2.00616L 8.01459 1.50616L 7.98831 1.50618L 7.96218 1.50895L 8.01485 2.00616ZM 4.49489 -0.493826L 2.01485 -0.493826L 2.01485 0.506174L 4.49489 0.506174L 4.49489 -0.493826ZM 2.05125 -0.4925C 0.529468 -0.603584 -0.626166 0.535774 -0.489029 2.0487L 0.506888 1.95843C 0.427316 1.08058 1.05158 0.437189 1.97845 0.504847L 2.05125 -0.4925ZM -0.491067 2.00532L -0.477032 6.00524L 0.522962 6.00173L 0.508926 2.00181L -0.491067 2.00532ZM -0.477035 6.00349L -0.477035 11.5142L 0.522965 11.5142L 0.522965 6.00349L -0.477035 6.00349ZM -0.477035 11.5142C -0.477035 12.8807 0.637231 14.0062 2.01485 14.0062L 2.01485 13.0062C 1.19229 13.0062 0.522965 12.3312 0.522965 11.5142L -0.477035 11.5142ZM 2.01497 14.0062L 13.015 14.0036L 13.0147 13.0036L 2.01473 13.0062L 2.01497 14.0062ZM 13.0149 14.0036C 14.3893 14.0036 15.5067 12.8881 15.5067 11.5115L 14.5067 11.5115C 14.5067 12.3353 13.8374 13.0036 13.0149 13.0036L 13.0149 14.0036ZM 15.5067 11.5106L 15.4927 3.99465L 14.4927 3.99652L 14.5067 11.5125L 15.5067 11.5106ZM 15.4912 4.03463C 15.6093 2.52724 14.4693 1.35553 12.9515 1.506L 13.0501 2.50113C 13.9234 2.41455 14.5656 3.04488 14.4942 3.95653L 15.4912 4.03463ZM 13.0006 1.50357L 8.01459 1.50616L 8.01511 2.50616L 13.0011 2.50357L 13.0006 1.50357ZM 6.85032 0.778533C 6.68593 0.293641 6.31754 -0.0318361 5.89486 -0.227029C 5.50122 -0.404095 4.97703 -0.496744 4.48977 -0.4938L 4.50002 0.506147C 4.89687 0.500037 5.20409 0.550743 5.47561 0.680842C 5.71808 0.792815 5.84859 0.938315 5.90327 1.09961L 6.85032 0.778533ZM 5.90327 1.09961C 6.19512 1.96046 7.1623 2.59928 8.06752 2.50338L 7.96218 1.50895C 7.5362 1.55407 6.99662 1.21006 6.85032 0.778533L 5.90327 1.09961Z"/>
<path id="path4_fill" fill-rule="evenodd" d="M 4 0L 2 0L 2 2L 0 2L 0 4L 2 4L 2 6L 4 6L 4 4L 6 4L 6 2L 4 2L 4 0Z"/>
</defs>
</svg>
