<svg width="16" height="16" viewBox="0 0 16 16" fill="none" xmlns="http://www.w3.org/2000/svg">
<g id="Folder_sym">
<path id="Folder" d="M8.52934 3.24199V3.24202H8.53333H13.8753C14.8898 3.24202 15.75 4.20979 15.75 5.25815V12.7418C15.75 13.796 14.891 14.742 13.8753 14.742H2.12468C1.10802 14.742 0.25 13.7879 0.25 12.7418V6.8638V3.13055C0.25 2.09202 1.08366 1.25 2.13965 1.25H5.32702C6.21333 1.25 6.90074 1.64862 7.13046 2.3772L7.13416 2.38893L7.13899 2.40025C7.26758 2.7012 7.46199 2.91629 7.71234 3.05333C7.95752 3.18754 8.23875 3.23735 8.52934 3.24199Z" fill="url(#paint0_linear)" stroke="url(#paint1_linear)" stroke-width="0.5"/>
<path id="Shine" d="M4.98005 1.74201V1.74203L4.98261 1.742C5.39896 1.73774 5.77562 1.80581 6.06557 1.93971C6.3531 2.07249 6.54307 2.26299 6.62519 2.50518C6.75584 2.89056 7.03999 3.21702 7.37703 3.43667C7.71 3.65367 8.1159 3.7802 8.51264 3.742L13.4861 3.7394L13.4984 3.7394L13.5106 3.73819C14.0376 3.68594 14.484 3.85813 14.7887 4.16386C15.0939 4.47012 15.2707 4.92449 15.2286 5.4619L15.2278 5.47188L15.2279 5.48189L15.2419 12.9974C15.2419 12.9975 15.2419 12.9977 15.2419 12.9978C15.2417 13.9596 14.4604 14.7394 13.5 14.7394H13.4999L2.5 14.742C2.49998 14.742 2.49996 14.742 2.49994 14.742C1.53865 14.742 0.758116 13.9544 0.758116 13L0.758118 7.48933L0.758115 7.48845L0.744079 3.48853L0.744041 3.47766L0.74306 3.46684C0.695171 2.93851 0.867639 2.49137 1.17385 2.18592C1.48036 1.88015 1.93597 1.70151 2.4818 1.74135L2.49089 1.74201H2.5H4.98005Z" stroke="url(#paint2_linear)" stroke-opacity="0.6" stroke-width="0.5"/>
<path id="Vector" fill-rule="evenodd" clip-rule="evenodd" d="M11.6927 12C11.628 12.0003 11.5648 11.9817 11.5124 11.9468C11.4601 11.9119 11.4212 11.8625 11.4016 11.806C10.9922 10.5893 9.85795 10.0013 8.00401 10.0009V11.3355C8.00397 11.3989 7.98422 11.461 7.94708 11.5145C7.90995 11.568 7.85695 11.6107 7.79431 11.6376C7.73166 11.6644 7.66196 11.6744 7.59336 11.6663C7.52476 11.6582 7.4601 11.6323 7.40696 11.5917L4.13098 9.09064C4.08999 9.05936 4.05701 9.0202 4.03437 8.97593C4.01173 8.93166 4 8.88336 4 8.83447C4 8.78558 4.01173 8.73728 4.03437 8.69301C4.05701 8.64874 4.08999 8.60958 4.13098 8.5783L7.40696 6.07733C7.4601 6.03674 7.52475 6.01087 7.59335 6.00275C7.66195 5.99463 7.73165 6.00459 7.7943 6.03147C7.85694 6.05835 7.90994 6.10103 7.94708 6.15452C7.98422 6.20801 8.00397 6.2701 8.00401 6.3335V7.6686C10.598 7.78966 11.9049 9.22878 11.9997 11.7044C12.0015 11.7425 11.9949 11.7805 11.9804 11.8162C11.9658 11.8518 11.9435 11.8845 11.9148 11.9121C11.8862 11.9397 11.8517 11.9617 11.8136 11.9768C11.7754 11.9919 11.7343 11.9998 11.6927 12V12Z" fill="#82B6CD"/>
</g>
<defs>
<linearGradient id="paint0_linear" x1="8" y1="1" x2="8" y2="14.8667" gradientUnits="userSpaceOnUse">
<stop stop-color="#C3E3F1"/>
<stop offset="0.111111" stop-color="#BFE1F0"/>
<stop offset="1" stop-color="#9DD2EA"/>
</linearGradient>
<linearGradient id="paint1_linear" x1="8" y1="1" x2="8" y2="14.8582" gradientUnits="userSpaceOnUse">
<stop stop-color="#6EBEE1"/>
<stop offset="1" stop-color="#6498AE"/>
</linearGradient>
<linearGradient id="paint2_linear" x1="7.5" y1="1.99202" x2="7.5" y2="14.984" gradientUnits="userSpaceOnUse">
<stop offset="0.18663" stop-color="white" stop-opacity="0.6"/>
<stop offset="0.279416" stop-color="white" stop-opacity="0"/>
</linearGradient>
</defs>
</svg>
