<svg width="16" height="16" viewBox="0 0 16 16" version="1.1" xmlns="http://www.w3.org/2000/svg" xmlns:xlink="http://www.w3.org/1999/xlink" xmlns:figma="http://www.figma.com/figma/ns">
<title>Settings</title>
<desc>Created using Figma</desc>
<g id="Canvas" transform="translate(-137 245)" figma:type="canvas">
<mask id="mask0_alpha" mask-type="alpha">
<path d="M 137 -245L 153 -245L 153 -229L 137 -229L 137 -245Z" fill="#FFFFFF"/>
</mask>
<g id="Settings" mask="url(#mask0_alpha)" figma:type="frame">
<g id="Component" figma:type="instance">
<g id="Rectangle" figma:type="vector">
<use xlink:href="#path0_fill" transform="translate(138 -245)" fill="#E3E3E3"/>
<mask id="mask1_outline_ins">
<use xlink:href="#path0_fill" fill="white" transform="translate(138 -245)"/>
</mask>
<g mask="url(#mask1_outline_ins)">
<use xlink:href="#path1_stroke_2x" transform="translate(138 -245)" fill="#000000" fill-opacity="0.25"/>
</g>
</g>
<g id="Gear" figma:type="frame">
<g id="Vector" figma:type="vector">
<use xlink:href="#path2_fill" transform="translate(140 -241)" fill="#656565"/>
</g>
</g>
<g id="Vector 2" figma:type="vector">
<use xlink:href="#path3_fill" transform="translate(144.5 -245)" fill="#FFFFFF"/>
<mask id="mask2_outline_ins">
<use xlink:href="#path3_fill" fill="white" transform="translate(144.5 -245)"/>
</mask>
<g mask="url(#mask2_outline_ins)">
<use xlink:href="#path4_stroke_2x" transform="translate(144.5 -245)" fill="#000000" fill-opacity="0.25"/>
</g>
</g>
</g>
</g>
</g>
<defs>
<path id="path0_fill" d="M 1 16L 13 16C 13.5523 16 14 15.5523 14 15L 14 7.07107C 14 7.02375 13.9967 6.97641 13.9896 6.92963C 13.4633 3.48334 10.5168 0.536771 7.0705 0.0104199C 7.02364 0.00326225 6.97621 6.37967e-06 6.9288 1.90907e-05L 0.999732 0.00160878C 0.447552 0.00175683 0 0.449429 0 1.00161L 0 15C 0 15.5523 0.447715 16 1 16Z"/>
<path id="path1_stroke_2x" d="M 0.999732 0.00160878L 0.999866 0.501609L 0.999732 0.00160878ZM 6.9288 1.90907e-05L 6.92866 -0.499981L 6.9288 1.90907e-05ZM 7.0705 0.0104199L 7.14599 -0.483849L 7.14599 -0.483849L 7.0705 0.0104199ZM 13.9896 6.92963L 13.4953 7.00511L 13.4953 7.00512L 13.9896 6.92963ZM 13 15.5L 1 15.5L 1 16.5L 13 16.5L 13 15.5ZM 0.5 15L 0.5 1.00161L -0.5 1.00161L -0.5 15L 0.5 15ZM 0.999866 0.501609L 6.92893 0.500019L 6.92866 -0.499981L 0.999598 -0.498391L 0.999866 0.501609ZM 13.5 7.07107L 13.5 15L 14.5 15L 14.5 7.07107L 13.5 7.07107ZM 6.99501 0.504688C 10.2251 0.998027 13.0021 3.77497 13.4953 7.00511L 14.4839 6.85415C 13.9246 3.19171 10.8084 0.075514 7.14599 -0.483849L 6.99501 0.504688ZM 0.5 1.00161C 0.5 0.725519 0.723776 0.501683 0.999866 0.501609L 0.999598 -0.498391C 0.171328 -0.498169 -0.5 0.173339 -0.5 1.00161L 0.5 1.00161ZM 13 16.5C 13.8284 16.5 14.5 15.8284 14.5 15L 13.5 15C 13.5 15.2761 13.2761 15.5 13 15.5L 13 16.5ZM 1 15.5C 0.723857 15.5 0.5 15.2761 0.5 15L -0.5 15C -0.5 15.8284 0.171573 16.5 1 16.5L 1 15.5ZM 6.92893 0.500019C 6.95914 0.499715 6.96873 0.500238 6.99501 0.504688L 7.14599 -0.483849C 7.07855 -0.493713 6.99327 -0.499702 6.92866 -0.499981L 6.92893 0.500019ZM 14.5 7.07107C 14.4997 7.00659 14.4937 6.92146 14.4839 6.85414L 13.4953 7.00512C 13.4998 7.03135 13.5003 7.04091 13.5 7.07107L 14.5 7.07107Z"/>
<path id="path2_fill" fill-rule="evenodd" d="M 9.86056 5.42448L 9.09356 5.64362C 9.05954 5.65358 9.02893 5.67274 9.00511 5.69898C 8.98128 5.72522 8.96516 5.75753 8.95852 5.79235C 8.92445 5.96166 8.87941 6.12858 8.82369 6.29205C 8.81196 6.32555 8.80973 6.36165 8.81724 6.39634C 8.82476 6.43103 8.84174 6.46297 8.86629 6.48861L 9.42162 7.06254C 9.45071 7.0926 9.46921 7.13132 9.47433 7.17283C 9.47945 7.21435 9.47091 7.2564 9.45001 7.29263L 9.21058 7.70733C 9.18967 7.74356 9.15752 7.772 9.119 7.78832C 9.08049 7.80465 9.0377 7.80798 8.99712 7.79781L 8.21825 7.60281C 8.18385 7.59439 8.14779 7.59563 8.11405 7.60639C 8.0803 7.61715 8.05018 7.63701 8.027 7.66379C 7.91385 7.79256 7.79269 7.91406 7.66424 8.02758C 7.63747 8.05075 7.61761 8.08085 7.60684 8.11457C 7.59607 8.1483 7.59481 8.18434 7.6032 8.21874L 7.79794 8.99695C 7.80811 9.03752 7.80479 9.0803 7.78848 9.11882C 7.77218 9.15733 7.74377 9.18949 7.70755 9.21042L 7.29276 9.44984C 7.25653 9.47077 7.21447 9.47932 7.17295 9.4742C 7.13143 9.46908 7.09271 9.45057 7.06266 9.42148L 6.48588 8.86343C 6.46026 8.83886 6.42834 8.82185 6.39365 8.81431C 6.35896 8.80677 6.32286 8.80898 6.28935 8.8207C 6.12697 8.87633 5.96118 8.92144 5.793 8.95574C 5.75823 8.96243 5.72598 8.97856 5.69978 9.00237C 5.67358 9.02618 5.65445 9.05674 5.64447 9.0907L 5.4246 9.86038C 5.4131 9.90061 5.38881 9.93599 5.35541 9.96118C 5.32201 9.98637 5.28132 10 5.23948 10L 4.76063 10C 4.7188 10 4.6781 9.98637 4.6447 9.96118C 4.6113 9.93599 4.58701 9.90061 4.57551 9.86038L 4.35576 9.0909C 4.3458 9.05687 4.32664 9.02626 4.30039 9.00242C 4.27415 8.97859 4.24183 8.96246 4.207 8.95582C 4.03845 8.92194 3.87226 8.87721 3.70948 8.82191C 3.67599 8.81021 3.63992 8.80801 3.60526 8.81555C 3.57061 8.82308 3.53871 8.84006 3.51311 8.86461L 2.93754 9.42148C 2.90748 9.45058 2.86875 9.46909 2.82723 9.47421C 2.78571 9.47932 2.74364 9.47077 2.70742 9.44984L 2.29272 9.21044C 2.25651 9.1895 2.2281 9.15735 2.21179 9.11883C 2.19549 9.08032 2.19217 9.03754 2.20233 8.99697L 2.39747 8.21766C 2.40589 8.18321 2.40464 8.1471 2.39384 8.11332C 2.38304 8.07954 2.36312 8.04939 2.33628 8.02622C 2.20732 7.91326 2.08564 7.79226 1.97196 7.66394C 1.94879 7.63724 1.91871 7.61743 1.88501 7.6067C 1.85132 7.59597 1.81533 7.59473 1.78098 7.60312L 1.00319 7.79783C 0.962612 7.80799 0.919826 7.80465 0.88131 7.78833C 0.842794 7.772 0.810644 7.74358 0.789727 7.70735L 0.550145 7.29263C 0.529231 7.25641 0.520686 7.21435 0.525804 7.17284C 0.530922 7.13132 0.549424 7.0926 0.578511 7.06254L 1.13498 6.48753C 1.15957 6.46188 1.17657 6.42992 1.18409 6.3952C 1.19162 6.36047 1.18938 6.32434 1.17762 6.29082C 1.1216 6.12774 1.0762 5.96122 1.04169 5.79228C 1.03503 5.75751 1.01891 5.72525 0.995099 5.69905C 0.971292 5.67284 0.940722 5.65371 0.906748 5.64375L 0.139599 5.42452C 0.0993707 5.41303 0.0639819 5.38875 0.0387924 5.35535C 0.0136028 5.32194 -1.54791e-05 5.28124 1.32035e-08 5.23941L 1.32035e-08 4.76056C -1.54791e-05 4.71872 0.0136028 4.67802 0.0387924 4.64462C 0.0639819 4.61121 0.0993707 4.58693 0.139599 4.57544L 0.906594 4.35621C 0.940609 4.34624 0.971212 4.32708 0.995032 4.30083C 1.01885 4.27459 1.03497 4.24227 1.0416 4.20746C 1.07571 4.03815 1.12076 3.87123 1.17647 3.70776C 1.1882 3.67426 1.19044 3.63816 1.18291 3.60347C 1.17538 3.56877 1.1584 3.53685 1.13383 3.51122L 0.578511 2.93741C 0.549424 2.90734 0.530922 2.86862 0.525804 2.82711C 0.520686 2.78559 0.529231 2.74354 0.550145 2.70731L 0.789554 2.29259C 0.810486 2.25638 0.842641 2.22798 0.881156 2.21167C 0.919671 2.19536 0.962449 2.19204 1.00302 2.20221L 1.78202 2.39723C 1.81642 2.40564 1.85248 2.40439 1.88623 2.39363C 1.91997 2.38286 1.95009 2.36299 1.97327 2.33621C 2.0864 2.20744 2.20755 2.08593 2.33599 1.97242C 2.36277 1.94926 2.38263 1.91916 2.3934 1.88544C 2.40417 1.85171 2.40542 1.81567 2.39701 1.78128L 2.20216 1.00307C 2.19198 0.962496 2.1953 0.919716 2.21161 0.8812C 2.22792 0.842684 2.25633 0.810529 2.29254 0.789602L 2.70724 0.550177C 2.74347 0.529259 2.78553 0.52071 2.82705 0.525825C 2.86857 0.530939 2.9073 0.549439 2.93736 0.578524L 3.51416 1.1366C 3.53979 1.16117 3.57172 1.17816 3.60642 1.1857C 3.64111 1.19323 3.67721 1.19102 3.71073 1.1793C 3.87309 1.1237 4.03885 1.07859 4.207 1.04426C 4.24177 1.03759 4.27403 1.02146 4.30024 0.997654C 4.32644 0.973844 4.34557 0.943271 4.35553 0.909295L 4.57543 0.139616C 4.58694 0.0993948 4.61122 0.064013 4.64462 0.0388228C 4.67802 0.0136327 4.71872 4.61873e-06 4.76055 0L 5.23941 0C 5.28124 7.7685e-06 5.32194 0.013637 5.35533 0.0388267C 5.38873 0.0640164 5.41302 0.0993965 5.42453 0.139616L 5.64438 0.909122C 5.65434 0.943148 5.67349 0.973765 5.69974 0.997599C 5.72599 1.02143 5.7583 1.03756 5.79313 1.0442C 5.96169 1.07808 6.12787 1.12281 6.29066 1.17812C 6.32415 1.1898 6.36021 1.192 6.39487 1.18446C 6.42952 1.17692 6.46142 1.15995 6.48703 1.13541L 7.06258 0.578562C 7.09263 0.549464 7.13135 0.530953 7.17287 0.525831C 7.21439 0.520709 7.25645 0.529256 7.29268 0.550177L 7.70738 0.789602C 7.7436 0.810527 7.77201 0.842681 7.78832 0.881198C 7.80463 0.919714 7.80794 0.962496 7.79777 1.00307L 7.60267 1.78238C 7.59424 1.81683 7.59549 1.85293 7.60629 1.88671C 7.61709 1.92049 7.63701 1.95063 7.66386 1.9738C 7.7928 2.08677 7.91448 2.20776 8.02815 2.33608C 8.05132 2.36279 8.0814 2.3826 8.11509 2.39333C 8.14878 2.40406 8.18477 2.4053 8.21912 2.3969L 8.99694 2.20221C 9.03751 2.19203 9.08029 2.19535 9.11881 2.21166C 9.15733 2.22796 9.18948 2.25638 9.21041 2.29259L 9.4498 2.70731C 9.47072 2.74353 9.47927 2.78559 9.47416 2.82711C 9.46904 2.86862 9.45054 2.90734 9.42145 2.93741L 8.865 3.51251C 8.84042 3.53816 8.82342 3.57011 8.81589 3.60483C 8.80837 3.63955 8.81061 3.67568 8.82236 3.7092C 8.87838 3.87228 8.92377 4.03882 8.95827 4.20776C 8.96494 4.24253 8.98106 4.27478 9.00486 4.30098C 9.02866 4.32718 9.05923 4.34631 9.09319 4.35626L 9.86038 4.5755C 9.90061 4.58699 9.936 4.61127 9.96119 4.64467C 9.98638 4.67808 10 4.71878 10 4.76061L 10 5.23946C 10 5.28126 9.98639 5.32192 9.96123 5.3553C 9.93608 5.38868 9.90074 5.41297 9.86056 5.42448ZM 3.1985 2.64885C 3.19153 2.63671 3.18202 2.62622 3.17062 2.61809C 3.15922 2.60996 3.1462 2.60439 3.13245 2.60175C 3.1187 2.59911 3.10454 2.59947 3.09094 2.6028C 3.07735 2.60613 3.06463 2.61236 3.05366 2.62106C 2.7004 2.90875 2.41564 3.27151 2.22008 3.68299C 2.02452 4.09447 1.92305 4.54434 1.92305 4.99992C 1.92305 5.45551 2.02452 5.90538 2.22008 6.31685C 2.41564 6.72833 2.7004 7.09109 3.05366 7.37879C 3.06463 7.38748 3.07735 7.39371 3.09094 7.39704C 3.10454 7.40037 3.11869 7.40073 3.13244 7.3981C 3.14619 7.39546 3.15921 7.38989 3.17061 7.38177C 3.18201 7.37364 3.19153 7.36315 3.1985 7.35102L 4.30622 5.43258C 4.38217 5.30102 4.42216 5.15179 4.42216 4.99988C 4.42216 4.84798 4.38217 4.69874 4.30622 4.56719L 3.1985 2.64885ZM 5 1.92286C 4.62772 1.92246 4.25847 1.98979 3.91029 2.12157C 3.89733 2.12671 3.88564 2.13458 3.87601 2.14464C 3.86638 2.15471 3.85904 2.16674 3.85449 2.17991C 3.84994 2.19307 3.84828 2.20707 3.84964 2.22094C 3.85099 2.2348 3.85533 2.24821 3.86234 2.26025L 4.97221 4.18259C 5.04817 4.31415 5.15741 4.42339 5.28897 4.49934C 5.42053 4.5753 5.56976 4.61528 5.72167 4.61529L 7.93821 4.61529C 7.9522 4.61529 7.96603 4.61229 7.97875 4.60647C 7.99147 4.60065 8.00279 4.59217 8.01193 4.58158C 8.02108 4.571 8.02783 4.55856 8.03174 4.54513C 8.03565 4.5317 8.03662 4.51759 8.03458 4.50375C 7.91718 3.78349 7.5475 3.12843 6.99159 2.65564C 6.43568 2.18285 5.72977 1.92312 5 1.92286ZM 7.93811 5.38443L 5.72176 5.38443C 5.56985 5.38443 5.42062 5.42441 5.28906 5.50037C 5.15751 5.57632 5.04826 5.68557 4.97231 5.81712L 3.86244 7.73944C 3.85542 7.75148 3.85109 7.76489 3.84973 7.77876C 3.84838 7.79262 3.85003 7.80662 3.85458 7.81979C 3.85914 7.83295 3.86648 7.84498 3.87611 7.85505C 3.88574 7.86512 3.89743 7.87299 3.91038 7.87812C 4.3367 8.03926 4.79349 8.10368 5.24774 8.06672C 5.70199 8.02975 6.14236 7.89233 6.53701 7.66438C 6.93166 7.43643 7.27073 7.12364 7.52972 6.74863C 7.78872 6.37363 7.96115 5.94576 8.03458 5.49596C 8.03659 5.48214 8.0356 5.46804 8.03168 5.45463C 8.02776 5.44122 8.021 5.42881 8.01186 5.41824C 8.00272 5.40767 7.99141 5.3992 7.9787 5.39339C 7.96599 5.38758 7.95209 5.38442 7.93811 5.38443Z"/>
<path id="path3_fill" d="M 7.5 7.5C 7 3 4.5 0.5 0 0C 1.5 1 2 1.5 2 5.5C 6 5.5 6.5 6 7.5 7.5Z"/>
<path id="path4_stroke_2x" d="M 0 0L 0.0552158 -0.496942L -0.27735 0.416025L 0 0ZM 7.5 7.5L 7.08397 7.77735L 7.99694 7.44478L 7.5 7.5ZM 2 5.5L 1.5 5.5L 1.5 6L 2 6L 2 5.5ZM -0.0552158 0.496942C 2.11408 0.737975 3.74695 1.45405 4.89645 2.60355C 6.04595 3.75305 6.76202 5.38592 7.00306 7.55522L 7.99694 7.44478C 7.73798 5.11408 6.95405 3.24695 5.60355 1.89645C 4.25305 0.545947 2.38592 -0.237975 0.0552158 -0.496942L -0.0552158 0.496942ZM 7.91603 7.22265C 7.40817 6.46121 6.93197 5.85532 6.06731 5.47596C 5.21429 5.12054 3.99567 5 2 5L 2 6C 4.00433 6 5.03571 6.12946 5.68269 6.39904C 6.31803 6.64468 6.59183 7.03879 7.08397 7.77735L 7.91603 7.22265ZM 2.5 5.5C 2.5 3.50433 2.37946 2.28571 2.02404 1.43269C 1.64468 0.56803 1.03879 0.0918303 0.27735 -0.416025L -0.27735 0.416025C 0.461214 0.90817 0.855324 1.18197 1.10096 1.81731C 1.37054 2.46429 1.5 3.49567 1.5 5.5L 2.5 5.5Z"/>
</defs>
</svg>
