<svg width="16" height="16" viewBox="0 0 16 16" version="1.1" xmlns="http://www.w3.org/2000/svg" xmlns:xlink="http://www.w3.org/1999/xlink">
<title>Symlink</title>
<desc>Created using Figma</desc>
<g id="Canvas" transform="translate(-52 223)">
<clipPath id="clip-0" clip-rule="evenodd">
<path d="M 52 -223L 68 -223L 68 -207L 52 -207L 52 -223Z" fill="#FFFFFF"/>
</clipPath>
<g id="Symlink" clip-path="url(#clip-0)">
<g id="Component">
<g id="Rectangle">
<use xlink:href="#path0_fill" transform="translate(53 -223)" fill="#F7F9FE"/>
<mask id="mask0_outline_ins">
<use xlink:href="#path0_fill" fill="white" transform="translate(53 -223)"/>
</mask>
<g mask="url(#mask0_outline_ins)">
<use xlink:href="#path1_stroke_2x" transform="translate(53 -223)" fill="#000000" fill-opacity="0.25"/>
</g>
</g>
<g id="Vector 2">
<use xlink:href="#path2_fill" transform="translate(59.5 -223)" fill="#FFFFFF"/>
<mask id="mask1_outline_ins">
<use xlink:href="#path2_fill" fill="white" transform="translate(59.5 -223)"/>
</mask>
<g mask="url(#mask1_outline_ins)">
<use xlink:href="#path3_stroke_2x" transform="translate(59.5 -223)" fill="#000000" fill-opacity="0.25"/>
</g>
</g>
</g>
<g id="Reply">
<g id="Vector">
<use xlink:href="#path4_fill" transform="translate(56 -218)" fill="#B9BFC8"/>
</g>
</g>
</g>
</g>
<defs>
<path id="path0_fill" d="M 1 16L 13 16C 13.5523 16 14 15.5523 14 15L 14 7.07107C 14 7.02375 13.9967 6.97641 13.9896 6.92963C 13.4633 3.48334 10.5168 0.536771 7.0705 0.0104199C 7.02364 0.00326225 6.97621 6.37967e-06 6.9288 1.90907e-05L 0.999732 0.00160878C 0.447552 0.00175683 0 0.449429 0 1.00161L 0 15C 0 15.5523 0.447715 16 1 16Z"/>
<path id="path1_stroke_2x" d="M 0.999732 0.00160878L 0.999866 0.501609L 0.999732 0.00160878ZM 6.9288 1.90907e-05L 6.92866 -0.499981L 6.9288 1.90907e-05ZM 7.0705 0.0104199L 7.14599 -0.483849L 7.14599 -0.483849L 7.0705 0.0104199ZM 13.9896 6.92963L 13.4953 7.00511L 13.4953 7.00512L 13.9896 6.92963ZM 13 15.5L 1 15.5L 1 16.5L 13 16.5L 13 15.5ZM 0.5 15L 0.5 1.00161L -0.5 1.00161L -0.5 15L 0.5 15ZM 0.999866 0.501609L 6.92893 0.500019L 6.92866 -0.499981L 0.999598 -0.498391L 0.999866 0.501609ZM 13.5 7.07107L 13.5 15L 14.5 15L 14.5 7.07107L 13.5 7.07107ZM 6.99501 0.504688C 10.2251 0.998027 13.0021 3.77497 13.4953 7.00511L 14.4839 6.85415C 13.9246 3.19171 10.8084 0.075514 7.14599 -0.483849L 6.99501 0.504688ZM 0.5 1.00161C 0.5 0.725519 0.723776 0.501683 0.999866 0.501609L 0.999598 -0.498391C 0.171328 -0.498169 -0.5 0.173339 -0.5 1.00161L 0.5 1.00161ZM 13 16.5C 13.8284 16.5 14.5 15.8284 14.5 15L 13.5 15C 13.5 15.2761 13.2761 15.5 13 15.5L 13 16.5ZM 1 15.5C 0.723857 15.5 0.5 15.2761 0.5 15L -0.5 15C -0.5 15.8284 0.171573 16.5 1 16.5L 1 15.5ZM 6.92893 0.500019C 6.95914 0.499715 6.96873 0.500238 6.99501 0.504688L 7.14599 -0.483849C 7.07855 -0.493713 6.99327 -0.499702 6.92866 -0.499981L 6.92893 0.500019ZM 14.5 7.07107C 14.4997 7.00659 14.4937 6.92146 14.4839 6.85414L 13.4953 7.00512C 13.4998 7.03135 13.5003 7.04091 13.5 7.07107L 14.5 7.07107Z"/>
<path id="path2_fill" d="M 7.5 7.5C 7 3 4.5 0.5 0 0C 1.5 1 2 1.5 2 5.5C 6 5.5 6.5 6 7.5 7.5Z"/>
<path id="path3_stroke_2x" d="M 0 0L 0.0552158 -0.496942L -0.27735 0.416025L 0 0ZM 7.5 7.5L 7.08397 7.77735L 7.99694 7.44478L 7.5 7.5ZM 2 5.5L 1.5 5.5L 1.5 6L 2 6L 2 5.5ZM -0.0552158 0.496942C 2.11408 0.737975 3.74695 1.45405 4.89645 2.60355C 6.04595 3.75305 6.76202 5.38592 7.00306 7.55522L 7.99694 7.44478C 7.73798 5.11408 6.95405 3.24695 5.60355 1.89645C 4.25305 0.545947 2.38592 -0.237975 0.0552158 -0.496942L -0.0552158 0.496942ZM 7.91603 7.22265C 7.40817 6.46121 6.93197 5.85532 6.06731 5.47596C 5.21429 5.12054 3.99567 5 2 5L 2 6C 4.00433 6 5.03571 6.12946 5.68269 6.39904C 6.31803 6.64468 6.59183 7.03879 7.08397 7.77735L 7.91603 7.22265ZM 2.5 5.5C 2.5 3.50433 2.37946 2.28571 2.02404 1.43269C 1.64468 0.56803 1.03879 0.0918303 0.27735 -0.416025L -0.27735 0.416025C 0.461214 0.90817 0.855324 1.18197 1.10096 1.81731C 1.37054 2.46429 1.5 3.49567 1.5 5.5L 2.5 5.5Z"/>
<path id="path4_fill" fill-rule="evenodd" d="M 7.69274 6C 7.62799 6.00033 7.56482 5.98168 7.51244 5.94677C 7.46007 5.91186 7.42124 5.86253 7.40162 5.80596C 6.99222 4.5893 5.85795 4.00133 4.00401 4.00088L 4.00401 5.33551C 4.00397 5.39891 3.98422 5.461 3.94708 5.51449C 3.90995 5.56798 3.85695 5.61067 3.79431 5.63755C 3.73166 5.66443 3.66196 5.6744 3.59336 5.66628C 3.52476 5.65816 3.4601 5.63229 3.40696 5.5917L 0.130984 3.09064C 0.0899908 3.05936 0.0570068 3.0202 0.0343705 2.97593C 0.0117342 2.93166 5.26508e-08 2.88336 5.26508e-08 2.83447C 5.26508e-08 2.78558 0.0117342 2.73728 0.0343705 2.69301C 0.0570068 2.64874 0.0899908 2.60958 0.130984 2.5783L 3.40696 0.0773262C 3.4601 0.036739 3.52475 0.0108702 3.59335 0.00274885C 3.66195 -0.0053725 3.73165 0.00458965 3.7943 0.0314689C 3.85694 0.0583481 3.90994 0.101032 3.94708 0.154522C 3.98422 0.208013 4.00397 0.270096 4.00401 0.333503L 4.00401 1.6686C 6.59804 1.78966 7.90489 3.22878 7.9997 5.7044C 8.00152 5.74247 7.99494 5.78048 7.98035 5.81616C 7.96577 5.85185 7.94348 5.88446 7.91482 5.91206C 7.88616 5.93966 7.85172 5.96167 7.81356 5.97678C 7.7754 5.99189 7.7343 5.99979 7.69274 6L 7.69274 6Z"/>
</defs>
</svg>
