<svg width="16" height="16" viewBox="0 0 16 16" version="1.1" xmlns="http://www.w3.org/2000/svg" xmlns:xlink="http://www.w3.org/1999/xlink" xmlns:figma="http://www.figma.com/figma/ns">
<title>Text</title>
<desc>Created using Figma</desc>
<g id="Canvas" transform="translate(-115 245)" figma:type="canvas">
<mask id="mask0_alpha" mask-type="alpha">
<path d="M 115 -245L 131 -245L 131 -229L 115 -229L 115 -245Z" fill="#FFFFFF"/>
</mask>
<g id="Text" mask="url(#mask0_alpha)" figma:type="frame">
<g id="Component" figma:type="instance">
<g id="Rectangle" figma:type="vector">
<use xlink:href="#path0_fill" transform="translate(116 -245)" fill="#FFFFFF"/>
<mask id="mask1_outline_ins">
<use xlink:href="#path0_fill" fill="white" transform="translate(116 -245)"/>
</mask>
<g mask="url(#mask1_outline_ins)">
<use xlink:href="#path1_stroke_2x" transform="translate(116 -245)" fill="#000000" fill-opacity="0.25"/>
</g>
</g>
<g id="text" figma:type="vector-operation">
<use xlink:href="#path2_fill" transform="translate(119 -240)" fill="url(#paint2_linear)"/>
</g>
<g id="Vector 2" figma:type="vector">
<use xlink:href="#path3_fill" transform="translate(122.5 -245)" fill="#FFFFFF"/>
<mask id="mask2_outline_ins">
<use xlink:href="#path3_fill" fill="white" transform="translate(122.5 -245)"/>
</mask>
<g mask="url(#mask2_outline_ins)">
<use xlink:href="#path4_stroke_2x" transform="translate(122.5 -245)" fill="#000000" fill-opacity="0.25"/>
</g>
</g>
</g>
</g>
</g>
<defs>
<linearGradient id="paint2_linear" x1="0" y1="0" x2="1" y2="0" gradientUnits="userSpaceOnUse" gradientTransform="matrix(4.89859e-16 7 -8 4.28626e-16 8 -4.28626e-16)">
<stop offset="0" stop-color="#B7BDC7"/>
<stop offset="1" stop-color="#D7DFE2"/>
</linearGradient>
<path id="path0_fill" d="M 1 16L 13 16C 13.5523 16 14 15.5523 14 15L 14 7.07107C 14 7.02375 13.9967 6.97641 13.9896 6.92963C 13.4633 3.48334 10.5168 0.536771 7.0705 0.0104199C 7.02364 0.00326225 6.97621 6.37967e-06 6.9288 1.90907e-05L 0.999732 0.00160878C 0.447552 0.00175683 0 0.449429 0 1.00161L 0 15C 0 15.5523 0.447715 16 1 16Z"/>
<path id="path1_stroke_2x" d="M 0.999732 0.00160878L 0.999866 0.501609L 0.999732 0.00160878ZM 6.9288 1.90907e-05L 6.92866 -0.499981L 6.9288 1.90907e-05ZM 7.0705 0.0104199L 7.14599 -0.483849L 7.14599 -0.483849L 7.0705 0.0104199ZM 13.9896 6.92963L 13.4953 7.00511L 13.4953 7.00512L 13.9896 6.92963ZM 13 15.5L 1 15.5L 1 16.5L 13 16.5L 13 15.5ZM 0.5 15L 0.5 1.00161L -0.5 1.00161L -0.5 15L 0.5 15ZM 0.999866 0.501609L 6.92893 0.500019L 6.92866 -0.499981L 0.999598 -0.498391L 0.999866 0.501609ZM 13.5 7.07107L 13.5 15L 14.5 15L 14.5 7.07107L 13.5 7.07107ZM 6.99501 0.504688C 10.2251 0.998027 13.0021 3.77497 13.4953 7.00511L 14.4839 6.85415C 13.9246 3.19171 10.8084 0.075514 7.14599 -0.483849L 6.99501 0.504688ZM 0.5 1.00161C 0.5 0.725519 0.723776 0.501683 0.999866 0.501609L 0.999598 -0.498391C 0.171328 -0.498169 -0.5 0.173339 -0.5 1.00161L 0.5 1.00161ZM 13 16.5C 13.8284 16.5 14.5 15.8284 14.5 15L 13.5 15C 13.5 15.2761 13.2761 15.5 13 15.5L 13 16.5ZM 1 15.5C 0.723857 15.5 0.5 15.2761 0.5 15L -0.5 15C -0.5 15.8284 0.171573 16.5 1 16.5L 1 15.5ZM 6.92893 0.500019C 6.95914 0.499715 6.96873 0.500238 6.99501 0.504688L 7.14599 -0.483849C 7.07855 -0.493713 6.99327 -0.499702 6.92866 -0.499981L 6.92893 0.500019ZM 14.5 7.07107C 14.4997 7.00659 14.4937 6.92146 14.4839 6.85414L 13.4953 7.00512C 13.4998 7.03135 13.5003 7.04091 13.5 7.07107L 14.5 7.07107Z"/>
<path id="path2_fill" fill-rule="evenodd" d="M 8 0L 0 0L 0 1L 8 1L 8 0ZM 8 2L 0 2L 0 3L 8 3L 8 2ZM 0 4L 8 4L 8 5L 0 5L 0 4ZM 8 6L 0 6L 0 7L 8 7L 8 6Z"/>
<path id="path3_fill" d="M 7.5 7.5C 7 3 4.5 0.5 0 0C 1.5 1 2 1.5 2 5.5C 6 5.5 6.5 6 7.5 7.5Z"/>
<path id="path4_stroke_2x" d="M 0 0L 0.0552158 -0.496942L -0.27735 0.416025L 0 0ZM 7.5 7.5L 7.08397 7.77735L 7.99694 7.44478L 7.5 7.5ZM 2 5.5L 1.5 5.5L 1.5 6L 2 6L 2 5.5ZM -0.0552158 0.496942C 2.11408 0.737975 3.74695 1.45405 4.89645 2.60355C 6.04595 3.75305 6.76202 5.38592 7.00306 7.55522L 7.99694 7.44478C 7.73798 5.11408 6.95405 3.24695 5.60355 1.89645C 4.25305 0.545947 2.38592 -0.237975 0.0552158 -0.496942L -0.0552158 0.496942ZM 7.91603 7.22265C 7.40817 6.46121 6.93197 5.85532 6.06731 5.47596C 5.21429 5.12054 3.99567 5 2 5L 2 6C 4.00433 6 5.03571 6.12946 5.68269 6.39904C 6.31803 6.64468 6.59183 7.03879 7.08397 7.77735L 7.91603 7.22265ZM 2.5 5.5C 2.5 3.50433 2.37946 2.28571 2.02404 1.43269C 1.64468 0.56803 1.03879 0.0918303 0.27735 -0.416025L -0.27735 0.416025C 0.461214 0.90817 0.855324 1.18197 1.10096 1.81731C 1.37054 2.46429 1.5 3.49567 1.5 5.5L 2.5 5.5Z"/>
</defs>
</svg>
