<svg width="16" height="16" viewBox="0 0 16 16" version="1.1" xmlns="http://www.w3.org/2000/svg" xmlns:xlink="http://www.w3.org/1999/xlink" xmlns:figma="http://www.figma.com/figma/ns">
<title>Tools</title>
<desc>Created using Figma</desc>
<g id="Canvas" transform="translate(-137 223)" figma:type="canvas">
<mask id="mask0_alpha" mask-type="alpha">
<path d="M 137 -223L 153 -223L 153 -207L 137 -207L 137 -223Z" fill="#FFFFFF"/>
</mask>
<g id="Tools" mask="url(#mask0_alpha)" figma:type="frame">
<g id="Wrench" filter="url(#filter0_ii)" figma:type="frame">
<g id="Vector" figma:type="vector">
<use xlink:href="#path0_fill" transform="translate(138 -221)" fill="#828282"/>
</g>
</g>
</g>
</g>
<defs>
<filter id="filter0_ii" filterUnits="userSpaceOnUse" x="138" y="-221" width="15" height="14" color-interpolation-filters="sRGB">
<feFlood flood-opacity="0" result="BackgroundImageFix"/>
<feBlend mode="normal" in="SourceGraphic" in2="BackgroundImageFix" result="shape"/>
<desc>type="innerShadow" x="0" y="-1" size="0" spread="0" color="0,0,0,0.4" blend="normal"</desc>
<feColorMatrix in="SourceAlpha" type="matrix" values="0 0 0 0 0 0 0 0 0 0 0 0 0 0 0 0 0 0 255 0" result="hardAlpha"/>
<feOffset dx="0" dy="-1"/>
<feComposite in2="hardAlpha" operator="arithmetic" k2="-1" k3="1"/>
<feColorMatrix type="matrix" values="0 0 0 0 0 0 0 0 0 0 0 0 0 0 0 0 0 0 0.4 0"/>
<feBlend mode="normal" in2="shape" result="effect1_innerShadow"/>
<desc>type="innerShadow" x="0" y="1" size="0" spread="0" color="1,1,1,0.1" blend="normal"</desc>
<feColorMatrix in="SourceAlpha" type="matrix" values="0 0 0 0 0 0 0 0 0 0 0 0 0 0 0 0 0 0 255 0" result="hardAlpha"/>
<feOffset dx="0" dy="1"/>
<feComposite in2="hardAlpha" operator="arithmetic" k2="-1" k3="1"/>
<feColorMatrix type="matrix" values="0 0 0 0 1 0 0 0 0 1 0 0 0 0 1 0 0 0 0.1 0"/>
<feBlend mode="normal" in2="effect1_innerShadow" result="effect2_innerShadow"/>
</filter>
<path id="path0_fill" fill-rule="evenodd" d="M 0.678605 10.5502C 0.47453 10.7269 0.309059 10.9437 0.192518 11.1872C 0.0759772 11.4307 0.0108664 11.6956 0.00124778 11.9654C -0.00837083 12.2352 0.0377093 12.504 0.136613 12.7552C 0.235518 13.0064 0.385123 13.2345 0.576096 13.4253C 0.767068 13.616 0.995309 13.7654 1.24658 13.8641C 1.49785 13.9627 1.76675 14.0086 2.03652 13.9987C 2.30628 13.9888 2.57111 13.9234 2.81449 13.8067C 3.05787 13.6899 3.27457 13.5242 3.45107 13.3199L 7.98705 8.06766C 8.0314 8.01742 8.09033 7.9823 8.15561 7.9672C 8.2209 7.9521 8.28926 7.95778 8.35116 7.98343C 9.05888 8.26434 9.83074 8.34306 10.5806 8.2108C 11.3834 8.06586 12.1259 7.68813 12.7158 7.12459C 13.3057 6.56105 13.7169 5.83655 13.8984 5.04118C 14.0079 4.56038 14.0291 4.06369 13.961 3.5753C 13.9526 3.51629 13.9278 3.46082 13.8895 3.41515C 13.8512 3.36948 13.8009 3.33544 13.7442 3.31688C 13.6876 3.29832 13.6269 3.29597 13.569 3.3101C 13.5111 3.32424 13.4582 3.35429 13.4165 3.39686L 11.2657 5.59513C 11.2264 5.63529 11.1772 5.66433 11.123 5.67929C 11.0688 5.69425 11.0117 5.6946 10.9573 5.68031L 9.04861 5.17805C 8.99414 5.1637 8.94445 5.13515 8.90463 5.09531C 8.8648 5.05548 8.83626 5.00579 8.82191 4.95132L 8.31965 3.04268C 8.30534 2.98832 8.30569 2.93114 8.32066 2.87696C 8.33564 2.82278 8.3647 2.77353 8.40489 2.73424L 10.6036 0.583583C 10.6462 0.541865 10.6763 0.489061 10.6904 0.431143C 10.7046 0.373225 10.7023 0.312504 10.6837 0.255848C 10.6651 0.199192 10.6311 0.148861 10.5854 0.110549C 10.5397 0.0722364 10.4842 0.0474706 10.4252 0.0390526C 9.93587 -0.029214 9.4382 -0.00784681 8.95652 0.10211C 8.16134 0.283981 7.43714 0.69555 6.87395 1.28565C 6.31076 1.87576 5.93343 2.61837 5.78885 3.42118C 5.65703 4.17049 5.73584 4.9417 6.0165 5.64886C 6.04235 5.71054 6.04821 5.77877 6.03324 5.84395C 6.01828 5.90913 5.98326 5.96798 5.93311 6.01221C 5.16592 6.67477 2.06738 9.35085 0.678605 10.5502ZM 1.90867 13.0457C 1.71987 13.0457 1.5353 12.9897 1.37831 12.8849C 1.22132 12.78 1.09896 12.6309 1.02671 12.4564C 0.954452 12.282 0.935545 12.0901 0.972378 11.9049C 1.00921 11.7197 1.10013 11.5496 1.23363 11.4161C 1.36714 11.2826 1.53724 11.1917 1.72242 11.1548C 1.90759 11.118 2.09954 11.1369 2.27397 11.2092C 2.4484 11.2814 2.59749 11.4038 2.70238 11.5608C 2.80727 11.7178 2.86325 11.9023 2.86325 12.0911C 2.86327 12.2165 2.83859 12.3407 2.79063 12.4565C 2.74267 12.5723 2.67236 12.6776 2.58371 12.7662C 2.49507 12.8549 2.38983 12.9252 2.27401 12.9732C 2.15818 13.0212 2.03404 13.0459 1.90867 13.0458L 1.90867 13.0457Z"/>
</defs>
</svg>
